# xmcd
#
# Track frame offsets: 
#        150
#        17437
#        40365
#        57697
#        79335
#        82340
#        98475
#        116605
#        133607
#
# Disc length: 2087 seconds
#
# Revision: 1
# Processed by: cddbd v1.5.2PL0 Copyright (c) Steve Scherf et al.
# Submitted via: ExactAudioCopyFreeDBPlugin 1.0
#
DISCID=75082509
DTITLE=Johnny Guitar Watson - That's What Time It Is [Japanese CD Edit
DTITLE=ion]
DYEAR=1981
DGENRE=Funk
TTITLE0=Do The Guitar
TTITLE1=The Planet Funk
TTITLE2=You Sexy Thing
TTITLE3=That's What Time It Is
TTITLE4=Flip It
TTITLE5=Go For It
TTITLE6=At The Wishing Well
TTITLE7=First Timothy Six
TTITLE8=I Miss Your Kiss
EXTD=
EXTT0=
EXTT1=
EXTT2=
EXTT3=
EXTT4=
EXTT5=
EXTT6=
EXTT7=
EXTT8=
PLAYORDER=
